# xmcd
#
# Track frame offsets: 
#        150
#        55547
#        82860
#        125325
#        163350
#        211365
#        243262
#        278925
#        296780
#        309555
#
# Disc length: 4349 seconds
#
# Revision: 0
# Processed by: cddbd v1.5.2PL0 Copyright (c) Steve Scherf et al.
# Submitted via: ExactAudioCopy v1.0b3
#
DISCID=8d10fb0a
DTITLE=Spohr, Louis - Concertantes u.a. (Hoelscher, RSO Berlin, Fröhli
DTITLE=ch)
DYEAR=2001
DGENRE=Violinwerk
TTITLE0=Concertante für zwei Violinen und Orch. Nr. 1 A-dur op. 48 - 1
TTITLE0=Allegro
TTITLE1=Concertante für zwei Violinen und Orch. Nr. 1 A-dur op. 48 - 2
TTITLE1=Larghetto
TTITLE2=Concertante für zwei Violinen und Orch. Nr. 1 A-dur op. 48 - 3
TTITLE2=Rondo
TTITLE3=Grande Polonaise op. 40
TTITLE4=Concertante für zwei Violinen und Orch. Nr. 2 h-moll op. 88 - 
TTITLE4=1. Allegro
TTITLE5=Concertante für zwei Violinen und Orch. Nr. 2 h-moll op. 88 - 
TTITLE5=2. Andantino
TTITLE6=Concertante für zwei Violinen und Orch. Nr. 2 h-moll op. 88 - 
TTITLE6=3. Rondo. Allegretto
TTITLE7=Potpourri über irische Volksweisen op. 59 - 1. Andante grave -
TTITLE7=Andantino
TTITLE8=Potpourri über irische Volksweisen op. 59 - 2. Larghetto - All
TTITLE8=egretto
TTITLE9=Potpourri über irische Volksweisen op. 59 - 3. Allegro
EXTD=
EXTT0=
EXTT1=
EXTT2=
EXTT3=
EXTT4=
EXTT5=
EXTT6=
EXTT7=
EXTT8=
EXTT9=
PLAYORDER=
